<?xml version="1.0" encoding="utf-8"?>
<!-- Generator: Adobe Illustrator 27.0.0, SVG Export Plug-In . SVG Version: 6.00 Build 0)  -->
<svg version="1.1" id="Layer_1" xmlns="http://www.w3.org/2000/svg" xmlns:xlink="http://www.w3.org/1999/xlink" x="0px" y="0px"
	 width="270.8px" height="270.8px" viewBox="0 0 270.8 270.8" style="enable-background:new 0 0 270.8 270.8;" xml:space="preserve"
	>
<g>
	<path style="fill:#FF3000;" d="M259.1,135.4c0,10.4-15.5,18.7-18,28.3c-2.7,9.9,6.5,24.8,1.5,33.5c-5.1,8.9-22.6,8.3-29.8,15.5
		c-7.2,7.2-6.6,24.7-15.5,29.8c-8.7,5.1-23.6-4.1-33.5-1.5c-9.6,2.6-17.9,18-28.3,18c-10.4,0-18.7-15.5-28.3-18
		c-9.9-2.7-24.8,6.5-33.5,1.5c-8.8-5.1-8.3-22.6-15.5-29.8c-7.2-7.2-24.7-6.6-29.8-15.5c-5.1-8.7,4.1-23.6,1.5-33.5
		c-2.6-9.6-18-17.9-18-28.3s15.5-18.7,18-28.3c2.7-9.9-6.5-24.8-1.5-33.5c5.1-8.8,22.6-8.3,29.8-15.5c7.2-7.2,6.6-24.7,15.5-29.8
		c8.7-5.1,23.6,4.1,33.5,1.5c9.6-2.6,17.9-18,28.3-18c10.4,0,18.7,15.5,28.3,18c9.9,2.7,24.8-6.5,33.5-1.5
		c8.8,5.1,8.3,22.6,15.5,29.8c7.2,7.2,24.7,6.6,29.8,15.5c5.1,8.7-4.1,23.6-1.5,33.5C243.6,116.7,259.1,125,259.1,135.4z"/>
	<linearGradient id="SVGID_1_" gradientUnits="userSpaceOnUse" x1="1.7206" y1="135.4077" x2="269.0968" y2="135.4077">
		<stop  offset="0" style="stop-color:#FFE6C1"/>
		<stop  offset="0.3713" style="stop-color:#FFB547"/>
		<stop  offset="0.5156" style="stop-color:#BC513A"/>
		<stop  offset="1" style="stop-color:#FFB03A"/>
	</linearGradient>
	<path style="fill:url(#SVGID_1_);" d="M135.4,11.7c10.4,0,18.7,15.5,28.3,18c1.3,0.3,2.7,0.5,4.1,0.5c7.1,0,15.7-3.5,22.8-3.5
		c2.4,0,4.7,0.4,6.6,1.5c8.8,5.1,8.3,22.6,15.5,29.8c7.2,7.2,24.7,6.6,29.8,15.5c5.1,8.7-4.1,23.6-1.5,33.5c2.6,9.6,18,17.9,18,28.3
		s-15.5,18.7-18,28.3c-2.7,9.9,6.5,24.8,1.5,33.5c-5.1,8.9-22.6,8.3-29.8,15.5c-7.2,7.2-6.6,24.7-15.5,29.8
		c-1.9,1.1-4.2,1.5-6.6,1.5c-7,0-15.6-3.5-22.8-3.5c-1.4,0-2.8,0.1-4.1,0.5c-9.6,2.6-17.9,18-28.3,18c-10.4,0-18.7-15.5-28.3-18
		c-1.3-0.3-2.7-0.5-4.1-0.5c-7.1,0-15.7,3.5-22.8,3.5c-2.4,0-4.7-0.4-6.6-1.5c-8.8-5.1-8.3-22.6-15.5-29.8
		c-7.2-7.2-24.7-6.6-29.8-15.5c-5.1-8.7,4.1-23.6,1.5-33.5c-2.6-9.6-18-17.9-18-28.3s15.5-18.7,18-28.3c2.7-9.9-6.5-24.8-1.5-33.5
		c5.1-8.8,22.6-8.3,29.8-15.5c7.2-7.2,6.6-24.7,15.5-29.8c1.9-1.1,4.2-1.5,6.6-1.5c7,0,15.6,3.5,22.8,3.5c1.4,0,2.8-0.1,4.1-0.5
		C116.7,27.2,125,11.7,135.4,11.7 M135.4,1.7c-9.7,0-16.9,6.7-22.7,12c-2.8,2.6-6.3,5.8-8.2,6.3c-0.3,0.1-0.7,0.2-1.6,0.2
		c-2.5,0-5.9-0.8-9.3-1.5c-4.4-1-8.9-2-13.5-2c-4.4,0-8.3,1-11.6,2.9c-8.2,4.8-11.1,14-13.4,21.5c-1.2,3.7-2.6,8.4-4.1,9.9
		c-1.5,1.5-6.1,2.9-9.9,4.1c-7.5,2.3-16.8,5.2-21.5,13.4c-4.7,8.1-2.6,17.6-0.9,25.1c0.9,3.9,1.9,8.7,1.4,10.8
		c-0.5,1.9-3.7,5.4-6.3,8.2c-5.4,5.8-12,13-12,22.7c0,9.7,6.7,16.9,12,22.7c2.6,2.8,5.8,6.3,6.3,8.2c0.6,2.2-0.5,7-1.4,10.8
		c-1.7,7.6-3.8,17,0.9,25.1c4.8,8.2,14,11.1,21.5,13.4c3.7,1.2,8.4,2.6,9.9,4.1c1.5,1.5,2.9,6.1,4.1,9.9c2.3,7.5,5.2,16.8,13.4,21.5
		c3.3,1.9,7.2,2.9,11.6,2.9c4.6,0,9.1-1,13.5-2c3.3-0.7,6.8-1.5,9.3-1.5c0.8,0,1.3,0.1,1.6,0.2c1.9,0.5,5.4,3.7,8.2,6.3
		c5.8,5.4,13,12,22.7,12c9.7,0,16.9-6.7,22.7-12c2.8-2.6,6.3-5.8,8.2-6.3c0.3-0.1,0.7-0.2,1.6-0.2c2.5,0,5.9,0.8,9.3,1.5
		c4.4,1,8.9,2,13.5,2c4.4,0,8.3-1,11.6-2.9c8.2-4.8,11.1-14,13.4-21.5c1.2-3.7,2.6-8.4,4.1-9.9c1.5-1.5,6.1-2.9,9.9-4.1
		c7.5-2.3,16.8-5.2,21.5-13.4c4.7-8.1,2.6-17.6,0.9-25.1c-0.9-3.9-1.9-8.7-1.4-10.8c0.5-1.9,3.7-5.4,6.3-8.2c5.4-5.8,12-13,12-22.7
		c0-9.7-6.7-16.9-12-22.7c-2.6-2.8-5.8-6.3-6.3-8.2c-0.6-2.2,0.5-7,1.4-10.8c1.7-7.6,3.8-17-0.9-25.1c-4.8-8.2-14-11.1-21.5-13.4
		c-3.7-1.2-8.4-2.6-9.9-4.1c-1.5-1.5-2.9-6.1-4.1-9.9c-2.3-7.5-5.2-16.8-13.4-21.5c-3.3-1.9-7.2-2.9-11.6-2.9c-4.6,0-9.1,1-13.5,2
		c-3.3,0.7-6.8,1.5-9.3,1.5c-0.8,0-1.3-0.1-1.6-0.2c-1.9-0.5-5.4-3.7-8.2-6.3C152.3,8.4,145.1,1.7,135.4,1.7L135.4,1.7z"/>
</g>
</svg>
