<svg width="1371" height="466" viewBox="0 0 1371 466" fill="none" xmlns="http://www.w3.org/2000/svg">
<path fill-rule="evenodd" clip-rule="evenodd" d="M275.068 63.6836C294.134 63.6836 309.812 69.8285 322.102 82.1182C334.392 94.293 340.536 110.258 340.536 130.014C340.536 149.769 334.392 165.792 322.102 178.081C309.812 190.256 294.134 196.344 275.068 196.344C255.887 196.344 240.151 190.256 227.862 178.081C215.572 165.792 209.427 149.769 209.427 130.014C209.427 110.258 215.572 94.293 227.862 82.1182C240.151 69.8285 255.887 63.6836 275.068 63.6836ZM739.648 63.6836C758.715 63.6836 774.393 69.8285 786.682 82.1182C798.972 94.293 805.117 110.258 805.117 130.014C805.117 149.769 798.972 165.792 786.682 178.081C774.393 190.256 758.715 196.344 739.648 196.344C720.467 196.344 704.732 190.256 692.442 178.081C680.152 165.792 674.008 149.769 674.008 130.014C674.008 110.258 680.152 94.293 692.442 82.1182C704.732 69.8285 720.467 63.6836 739.648 63.6836ZM1209.93 194.621H1173.06V190.486C1178.23 186.236 1180.81 179.919 1180.81 171.534V157.579C1180.81 144.371 1186.67 136.216 1198.39 133.115C1184.03 128.061 1176.85 118.298 1176.85 103.826C1176.85 78.2128 1194.37 65.4062 1229.4 65.4062H1283.32V194.621H1248.87V150.171H1227.33C1220.44 150.171 1216.99 153.961 1216.99 161.542V175.497C1216.99 185.26 1214.64 191.634 1209.93 194.621ZM1229.91 122.605H1248.87V95.5563H1230.09C1224 95.5563 1219.58 96.7049 1216.82 99.002C1214.18 101.184 1212.86 104.63 1212.86 109.339C1212.86 118.183 1218.54 122.605 1229.91 122.605ZM524.185 221.201C543.252 221.201 558.93 227.346 571.219 239.636C583.509 251.811 589.654 267.776 589.654 287.531C589.654 307.287 583.509 323.309 571.219 335.599C558.93 347.774 543.252 353.861 524.185 353.861C505.004 353.861 489.269 347.774 476.979 335.599C464.689 323.309 458.544 307.287 458.544 287.531C458.544 267.776 464.689 251.811 476.979 239.636C489.269 227.346 505.004 221.201 524.185 221.201ZM674.6 314.925C669.431 319.06 662.942 321.127 655.131 321.127C646.172 321.127 638.994 318.141 633.596 312.168C628.312 306.196 625.67 297.983 625.67 287.531C625.67 277.194 628.37 269.039 633.768 263.067C639.166 256.979 646.287 253.936 655.131 253.936C662.827 253.936 669.201 256.118 674.255 260.482C679.424 264.732 682.927 270.705 684.764 278.4L718.36 265.996C714.685 252.213 707.391 241.301 696.48 233.261C685.683 225.221 671.9 221.201 655.131 221.201C635.72 221.201 619.927 227.289 607.753 239.463C595.693 251.638 589.663 267.661 589.663 287.531C589.663 307.402 595.693 323.424 607.753 335.599C619.927 347.774 635.72 353.861 655.131 353.861C671.786 353.861 685.511 349.899 696.308 341.974C707.104 334.048 714.34 322.965 718.016 308.722L685.454 297.179C683.386 304.76 679.768 310.675 674.6 314.925ZM844.092 352.14H803.923L755.339 297.87V352.14H720.881V222.926H755.339V273.75L799.435 223.909H799.098V163.609H808.229C815.12 152.238 819.14 136.043 820.289 115.025L822.873 65.4062H921.421V163.609H936.926V223.909H913.857C921.763 225.074 928.141 227.273 932.991 230.506C940.572 235.56 944.362 243.715 944.362 254.971C944.362 261.173 942.697 266.686 939.366 271.51C936.035 276.334 931.613 280.01 926.1 282.537C933.68 284.834 939.481 288.854 943.501 294.597C947.636 300.225 949.703 307.174 949.703 315.443C949.703 339.908 932.302 352.14 897.5 352.14H845.789H844.092ZM904.192 223.03C902.53 222.961 900.816 222.926 899.051 222.926H844.092V350.256L784.972 284.604L842.343 222.926H831.832V194.621H904.192V223.03ZM892.16 252.042C903.186 252.042 908.699 255.086 908.699 261.173C908.699 264.619 907.493 267.376 905.081 269.443C902.669 271.396 899.223 272.372 894.744 272.372H878.549V252.042H892.16ZM878.549 297.353H894.744C907.608 297.353 914.04 301.488 914.04 309.758C914.04 314.352 912.374 317.683 909.044 319.75C905.713 321.818 900.429 322.852 893.193 322.852H878.549V297.353ZM943.675 352.14H977.271L986.058 328.882H1033.95L1042.74 352.14H1077.71L1027.23 222.926H994.155L943.675 352.14ZM1010.01 265.308L1023.62 301.316H996.395L1010.01 265.308ZM303.968 222.926V352.14H336.702V276.679L363.062 352.14H393.729L419.744 277.713V352.14H454.201V222.926H406.65L380.118 300.799L353.586 222.926H303.968ZM1059.27 194.621H1096.14C1100.84 191.634 1103.2 185.26 1103.2 175.497V161.542C1103.2 153.961 1106.65 150.171 1113.54 150.171H1135.07V194.621H1169.53V65.4062H1115.6C1080.57 65.4062 1063.06 78.2128 1063.06 103.826C1063.06 118.298 1070.24 128.061 1084.59 133.115C1072.88 136.216 1067.02 144.371 1067.02 157.579V171.534C1067.02 179.919 1064.44 186.236 1059.27 190.486V194.621ZM1135.07 122.605H1116.12C1104.75 122.605 1099.06 118.183 1099.06 109.339C1099.06 104.63 1100.39 101.184 1103.03 99.002C1105.78 96.7049 1110.21 95.5563 1116.29 95.5563H1135.07V122.605ZM1021.4 194.621V143.796H973.157V194.621H938.7V65.4062H973.157V112.785H1021.4V65.4062H1055.85V194.621H1021.4ZM841.825 163.609C847.567 153.961 850.956 137.766 851.989 115.025L852.851 96.4177H886.964V163.609H841.825ZM585.894 65.4062V194.621H620.351V94.6949H676.516V65.4062H585.894ZM516.11 63.6836C535.176 63.6836 550.854 69.8285 563.144 82.1182C575.433 94.293 581.578 110.258 581.578 130.014C581.578 149.769 575.433 165.792 563.144 178.081C550.854 190.256 535.176 196.344 516.11 196.344C496.928 196.344 481.193 190.256 468.903 178.081C456.614 165.792 450.469 149.769 450.469 130.014C450.469 110.258 456.614 94.293 468.903 82.1182C481.193 69.8285 496.928 63.6836 516.11 63.6836ZM398.261 194.621C433.062 194.621 450.463 182.388 450.463 157.924C450.463 149.654 448.396 142.705 444.261 137.077C440.241 131.334 434.441 127.314 426.86 125.017C432.373 122.49 436.795 118.815 440.126 113.991C443.457 109.167 445.122 103.654 445.122 97.4514C445.122 86.1954 441.332 78.0405 433.752 72.9868C426.171 67.9331 414.858 65.4062 399.811 65.4062H344.852V194.621H398.261ZM392.92 94.5226C403.946 94.5226 409.459 97.5663 409.459 103.654C409.459 107.099 408.253 109.856 405.841 111.923C403.429 113.876 399.984 114.852 395.504 114.852H379.309V94.5226H392.92ZM379.309 139.834H395.504C408.368 139.834 414.8 143.969 414.8 152.238C414.8 156.833 413.135 160.163 409.804 162.231C406.473 164.298 401.19 165.332 393.954 165.332H379.309V139.834ZM170.697 143.796V194.621H205.154V65.4062H170.697V112.785H122.457V65.4062H88V194.621H122.457V143.796H170.697ZM516.122 91.1816C517.999 91.1816 519.52 92.7029 519.52 94.5795V102.144L525.812 97.2231C527.29 96.067 529.426 96.328 530.582 97.8062C531.738 99.2844 531.477 101.42 529.999 102.576L519.52 110.772V124.752L531.641 117.634L533.406 104.488C533.656 102.629 535.366 101.323 537.226 101.573C539.086 101.823 540.391 103.533 540.141 105.393L539.084 113.263L545.644 109.411C547.262 108.46 549.344 109.002 550.294 110.62C551.245 112.238 550.703 114.32 549.085 115.271L542.566 119.099L549.98 121.976C551.729 122.655 552.597 124.623 551.918 126.373C551.239 128.122 549.271 128.99 547.521 128.311L535.092 123.488L522.519 130.872L535.085 138.252L547.521 133.426C549.271 132.747 551.239 133.615 551.918 135.365C552.597 137.114 551.729 139.083 549.98 139.762L542.558 142.641L549.082 146.473C550.7 147.423 551.242 149.506 550.291 151.124C549.341 152.742 547.259 153.283 545.64 152.333L539.085 148.483L540.141 156.345C540.391 158.205 539.086 159.915 537.226 160.165C535.366 160.414 533.656 159.109 533.406 157.249L531.642 144.111L519.52 136.991V151.325L529.999 159.521C531.477 160.677 531.738 162.812 530.582 164.29C529.426 165.769 527.29 166.03 525.812 164.873L519.52 159.952V166.796C519.52 168.673 517.999 170.194 516.122 170.194C514.246 170.194 512.725 168.673 512.725 166.796V159.952L506.433 164.873C504.954 166.03 502.819 165.769 501.663 164.29C500.507 162.812 500.768 160.677 502.246 159.521L512.725 151.325V136.624L499.978 144.109L498.213 157.252C497.963 159.112 496.253 160.417 494.393 160.167C492.533 159.918 491.228 158.208 491.478 156.348L492.534 148.481L486.601 151.965C484.983 152.915 482.901 152.374 481.951 150.756C481 149.137 481.542 147.055 483.16 146.105L489.056 142.642L481.639 139.765C479.89 139.086 479.022 137.117 479.701 135.368C480.38 133.618 482.348 132.75 484.098 133.429L496.53 138.253L509.1 130.871L496.533 123.49L484.101 128.314C482.351 128.993 480.383 128.125 479.704 126.376C479.025 124.626 479.893 122.658 481.642 121.979L489.06 119.101L483.16 115.635C481.542 114.685 481 112.603 481.951 110.985C482.901 109.367 484.983 108.825 486.601 109.776L492.537 113.262L491.481 105.396C491.231 103.536 492.536 101.826 494.396 101.576C496.256 101.326 497.966 102.632 498.216 104.491L499.981 117.634L512.725 125.119V110.772L502.246 102.576C500.768 101.42 500.507 99.2844 501.663 97.8062C502.819 96.328 504.954 96.067 506.433 97.2231L512.725 102.144V94.5795C512.725 92.7029 514.246 91.1816 516.122 91.1816ZM763.125 107.886C766.134 110.897 768.671 113.436 770.742 114.269C770.742 114.269 766.706 117.969 766.974 122.405L760.074 120.462C758.394 119.987 757.021 118.78 756.339 117.176L751.116 104.896C750.812 104.182 749.968 103.871 749.271 104.218C748.635 104.539 748.352 105.3 748.635 105.957L760.918 134.502H710.716C710.716 134.502 716.772 115.679 719.6 108.014C722.428 100.35 729.424 94.0313 739.519 94.0313C749.283 94.0313 757.138 101.893 763.125 107.886ZM741.106 122.041H743.376L743.373 122.033C744.062 122.033 744.624 121.473 744.624 120.783C744.624 120.094 744.062 119.533 743.373 119.533H741.103L742.997 117.126C743.423 116.583 743.33 115.797 742.786 115.372C742.246 114.947 741.46 115.04 741.031 115.583L737.921 119.537H735.404V117.022L739.362 113.915C739.905 113.49 739.998 112.704 739.573 112.161C739.147 111.618 738.361 111.525 737.817 111.951L735.404 113.844V111.575C735.404 110.886 734.843 110.325 734.153 110.325C733.463 110.325 732.902 110.886 732.902 111.575V113.844L730.492 111.951C729.953 111.525 729.163 111.618 728.737 112.161C728.312 112.704 728.405 113.49 728.948 113.915L732.905 117.022V119.537H729.985L727.096 115.865C726.671 115.322 725.884 115.229 725.341 115.654C724.798 116.079 724.705 116.865 725.13 117.408L726.803 119.537H724.941C724.251 119.537 723.689 120.098 723.689 120.787C723.689 121.476 724.251 122.037 724.941 122.037H726.803L725.13 124.166C724.705 124.709 724.798 125.494 725.341 125.919C725.881 126.344 726.671 126.252 727.096 125.709L729.985 122.037H732.905V124.955L729.23 127.841C728.687 128.266 728.594 129.052 729.02 129.595C729.445 130.138 730.231 130.23 730.775 129.805L732.905 128.134V129.995C732.905 130.684 733.467 131.245 734.157 131.245C734.847 131.245 735.408 130.684 735.408 129.995V128.134L737.538 129.805C738.078 130.234 738.868 130.138 739.294 129.595C739.719 129.052 739.626 128.266 739.083 127.841L735.408 124.955V122.037H737.924L741.035 125.991C741.46 126.534 742.246 126.627 742.79 126.202C743.333 125.777 743.426 124.991 743.001 124.448L741.106 122.041ZM769.533 144.857H758.169H758.165C757.44 144.857 756.85 145.446 756.85 146.171C756.85 146.896 757.44 147.485 758.165 147.485H769.53V150.771C769.53 153.079 767.66 154.947 765.351 154.947H710.187C707.878 154.947 706.008 153.079 706.008 150.771V147.485H717.373C718.098 147.485 718.688 146.896 718.688 146.171C718.688 145.446 718.098 144.857 717.373 144.857H706.008V141.238C706.008 138.931 707.878 137.063 710.187 137.063H765.354C767.664 137.063 769.533 138.931 769.533 141.238V144.857ZM722.857 146.167C722.857 146.892 723.446 147.482 724.172 147.482C724.898 147.482 725.488 146.892 725.488 146.167C725.488 145.442 724.898 144.853 724.172 144.853C723.446 144.853 722.857 145.442 722.857 146.167ZM729.656 146.167C729.656 146.892 730.246 147.482 730.971 147.482C731.697 147.482 732.287 146.892 732.287 146.167C732.287 145.442 731.697 144.853 730.971 144.853C730.246 144.853 729.656 145.442 729.656 146.167ZM736.455 146.167C736.455 146.892 737.045 147.482 737.771 147.482C738.496 147.482 739.086 146.892 739.086 146.167C739.086 145.442 738.496 144.853 737.771 144.853C737.045 144.853 736.455 145.442 736.455 146.167ZM743.255 146.167C743.255 146.892 743.844 147.482 744.57 147.482C745.296 147.482 745.886 146.892 745.886 146.167C745.886 145.442 745.296 144.853 744.57 144.853C743.844 144.853 743.255 145.442 743.255 146.167ZM750.054 146.167C750.054 146.892 750.644 147.482 751.369 147.482C752.095 147.482 752.685 146.892 752.685 146.167C752.685 145.442 752.095 144.853 751.369 144.853C750.644 144.853 750.054 145.442 750.054 146.167ZM778.345 132.02C783.254 132.02 787.229 128.045 787.229 123.144C787.229 118.24 783.254 114.269 778.345 114.269C773.437 114.269 769.462 118.24 769.462 123.144C769.462 128.048 773.437 132.02 778.345 132.02ZM540.767 315.421C540.294 315.043 539.82 314.65 539.361 314.237C537.026 312.303 535.293 309.742 534.366 306.856C531.802 307.143 529.207 306.968 526.703 306.34C523.683 305.585 520.991 303.864 519.039 301.438C518.326 300.498 517.741 299.468 517.299 298.374C515.068 298.286 512.866 297.836 510.779 297.04C506.566 295.452 502.402 292.456 501.021 288.089C498.874 288.181 496.729 287.843 494.713 287.096C492.536 286.302 490.56 285.04 488.925 283.398C488.942 282.423 489.027 281.451 489.178 280.488C491.308 283.25 494.392 285.115 497.827 285.718C498.737 285.869 499.659 285.936 500.581 285.919C500.343 284.448 500.579 282.941 501.256 281.613C501.932 280.286 503.013 279.209 504.342 278.537C504.933 278.313 505.565 278.216 506.196 278.253C506.828 278.29 507.444 278.46 508.005 278.751C508.566 279.043 509.06 279.449 509.453 279.945C509.846 280.44 510.13 281.012 510.287 281.625C510.838 285.163 506.716 286.99 503.926 287.624L503.148 287.729C503.312 288.172 503.512 288.601 503.745 289.013C504.929 290.762 506.455 292.254 508.231 293.399C510.007 294.544 511.996 295.318 514.079 295.674C514.928 295.881 515.791 296.024 516.661 296.1C516.47 295.121 516.44 294.116 516.574 293.126C516.674 291.806 517.21 290.557 518.1 289.576C518.989 288.595 520.18 287.938 521.484 287.71C524.538 287.538 525.996 290.696 525.557 293.317C525.037 296.299 522.29 297.793 519.52 298.166C521.644 302.58 526.58 304.606 531.314 304.724C532.202 304.742 533.091 304.715 533.976 304.641C533.816 303.254 534.027 301.849 534.586 300.57C535.145 299.29 536.033 298.181 537.16 297.356C537.76 296.927 538.468 296.674 539.205 296.627C539.941 296.58 540.676 296.74 541.326 297.09C541.921 297.493 542.401 298.045 542.718 298.691C543.034 299.337 543.177 300.054 543.131 300.772C543.026 304.233 539.688 305.862 536.685 306.414L536.485 306.441C536.988 307.99 537.808 309.418 538.893 310.632C540.1 312.067 541.46 313.366 542.949 314.505L542.998 314.482C547.449 312.525 551.171 309.215 553.634 305.022C556.096 300.828 557.174 295.966 556.714 291.125L556.412 288.88C556.182 287.354 555.838 285.848 555.381 284.374C555.224 283.84 555.048 283.311 554.854 282.789C555.035 283.29 555.198 283.797 555.345 284.309C546.775 282.33 538.598 278.928 531.153 274.244C526.894 271.644 522.811 268.764 518.933 265.624C516.017 263.533 513.53 260.901 511.609 257.871L511.576 257.876C509.514 258.289 507.497 258.902 505.554 259.705C508.482 262.594 511.571 265.315 514.805 267.857C522.929 274.26 531.868 279.557 541.386 283.609C546.254 285.689 551.261 287.428 556.371 288.814C556.473 289.574 556.555 290.319 556.619 291.066C555.66 290.828 554.724 290.559 553.78 290.287L553.346 290.162C534.54 284.607 517.408 274.47 503.486 260.662L503.439 260.686C500.002 262.34 496.979 264.745 494.595 267.723C492.212 270.702 490.528 274.178 489.668 277.895C489.434 278.748 489.255 279.615 489.134 280.492C488.982 281.455 488.898 282.427 488.881 283.401C488.863 290.518 492.713 296.523 496.96 302.328L498.987 305.059C500.02 306.431 501.034 307.806 501.995 309.188C502.535 310.296 502.867 311.524 503.198 312.751L503.198 312.752C503.818 315.05 504.437 317.347 506.431 318.856C508.969 320.911 512.11 319.976 515.118 319.081C516.18 318.765 517.226 318.454 518.223 318.281C519.976 317.983 521.753 317.848 523.532 317.879C524.083 317.878 524.629 317.882 525.176 317.887L525.181 317.887L525.182 317.887C525.731 317.891 526.28 317.895 526.833 317.895C527.023 317.895 527.212 317.899 527.401 317.904L527.401 317.904C527.889 317.915 528.373 317.927 528.856 317.862C532.927 317.657 536.943 316.834 540.767 315.421ZM554.545 281.999C552.064 275.808 548.023 270.364 542.813 266.199L542.715 266.12C545.075 265.372 546.278 260.523 545.606 258.507C543.875 251.958 533.043 251.445 532.371 258.908C532.093 259.178 531.968 259.458 531.969 259.744L531.953 259.738C526.21 257.461 519.975 256.713 513.857 257.568C516.129 260.682 518.928 263.375 522.127 265.526C529.604 271.479 537.948 276.253 546.87 279.682C549.383 280.596 551.945 281.37 554.545 281.999ZM502.913 283.116C502.67 283.939 502.592 284.801 502.684 285.654C503.551 285.491 504.4 285.247 505.221 284.925C506.419 284.581 507.436 283.782 508.055 282.7C508.203 282.332 508.211 281.922 508.075 281.549C507.94 281.176 507.672 280.866 507.322 280.679C505.375 279.504 503.484 281.196 502.913 283.116ZM518.687 293.607C518.568 294.441 518.619 295.289 518.836 296.102L518.8 296.107C519.547 296.056 520.283 295.901 520.987 295.647C521.491 295.493 521.957 295.234 522.355 294.889C522.753 294.543 523.073 294.117 523.296 293.64C523.639 292.789 523.65 291.84 523.325 290.982C523.184 290.622 522.932 290.316 522.606 290.108C522.28 289.9 521.897 289.801 521.511 289.826C521.1 289.915 520.712 290.088 520.371 290.334C520.03 290.58 519.743 290.893 519.528 291.254C519.092 291.974 518.806 292.774 518.687 293.607ZM536.124 303.486C536.108 303.774 536.11 304.063 536.13 304.351L536.094 304.356C537.215 304.213 538.299 303.861 539.29 303.317C539.76 303.082 540.164 302.733 540.466 302.304C540.769 301.874 540.96 301.375 541.022 300.854C541.111 300.43 541.046 299.988 540.84 299.607C540.633 299.227 540.298 298.932 539.894 298.775C539.394 298.731 538.892 298.824 538.441 299.044C537.99 299.263 537.607 299.602 537.335 300.023C536.59 301.028 536.168 302.236 536.124 303.486ZM284.935 137.75C286.05 136.626 287.545 135.954 289.129 135.862V134.286C287.546 134.197 286.052 133.528 284.936 132.407C283.82 131.286 283.161 129.793 283.088 128.216H281.504C281.431 129.784 280.778 131.269 279.671 132.387C278.564 133.505 277.08 134.176 275.506 134.271V135.862C277.084 135.961 278.57 136.637 279.677 137.76C280.784 138.884 281.435 140.374 281.504 141.946H283.088C283.161 140.368 283.819 138.874 284.935 137.75ZM277.302 110.612C276.826 111.094 276.185 111.383 275.506 111.423L275.477 112.108C276.157 112.151 276.798 112.443 277.274 112.928C277.751 113.413 278.03 114.057 278.058 114.735H278.776C278.808 114.053 279.092 113.408 279.574 112.923C280.056 112.437 280.702 112.147 281.387 112.108V111.437C280.702 111.398 280.056 111.108 279.574 110.623C279.092 110.138 278.808 109.492 278.776 108.811H278.087C278.059 109.487 277.779 110.129 277.302 110.612ZM285.686 119.17H298.867C298.867 119.17 280.727 105.864 275.491 89.4785C269.288 106.476 252.116 119.17 252.116 119.17H265.388C262.352 132.156 242.687 148.016 242.687 148.016H271.444V165.116C271.919 165.734 272.532 166.233 273.234 166.575C273.937 166.917 274.71 167.092 275.491 167.085C276.283 167.144 277.076 166.993 277.79 166.646C278.503 166.3 279.112 165.772 279.553 165.116V147.899H308.311C308.311 147.899 289.841 132.942 285.686 119.17Z" fill="white"/>
<defs>
<filter id="filter0_d_886_651937" x="0.62645" y="0.92231" width="1370.07" height="464.925" filterUnits="userSpaceOnUse" color-interpolation-filters="sRGB">
<feFlood flood-opacity="0" result="BackgroundImageFix"/>
<feColorMatrix in="SourceAlpha" type="matrix" values="0 0 0 0 0 0 0 0 0 0 0 0 0 0 0 0 0 0 127 0" result="hardAlpha"/>
<feOffset dy="24.6123"/>
<feGaussianBlur stdDeviation="43.6868"/>
<feComposite in2="hardAlpha" operator="out"/>
<feColorMatrix type="matrix" values="0 0 0 0 0.227451 0 0 0 0 0.0392157 0 0 0 0 0.054902 0 0 0 0.33 0"/>
<feBlend mode="normal" in2="BackgroundImageFix" result="effect1_dropShadow_886_651937"/>
<feBlend mode="normal" in="SourceGraphic" in2="effect1_dropShadow_886_651937" result="shape"/>
</filter>
</defs>
</svg>
