<svg width="124" height="30" viewBox="0 0 124 30" fill="none" xmlns="http://www.w3.org/2000/svg">
<path d="M20.1028 24.1648V29.1512H0.424995V24.5483C9.22923 16.7236 14.0076 13.4632 14.0076 9.20563C14.0076 6.32887 12.3521 4.75624 9.9441 4.75624C7.04698 4.75624 5.61723 7.01929 5.57961 11.1235H0.161621C0.199246 7.74807 1.13987 5.0631 2.98349 3.03019C4.82711 0.997277 7.27273 0 10.2451 0C15.6255 0 19.5761 3.56718 19.5761 8.32342C19.5761 12.5427 18.2592 15.4194 7.57373 24.1648H20.1028Z" fill="white"/>
<path d="M44.2318 0C51.0796 0 55.3688 5.75352 55.3688 14.4605C55.3688 23.5127 51.4558 29.5347 44.2318 29.5347C37.1207 29.5347 33.1325 23.5127 33.1325 14.4605C33.1325 5.75352 37.497 0 44.2318 0ZM44.2318 4.83296C40.3188 4.83296 38.5881 8.43849 38.5881 14.7674C38.5881 21.0579 40.3188 24.7401 44.2318 24.7401C48.2577 24.7401 49.9132 21.0579 49.9132 14.7674C49.9132 8.43849 48.2577 4.83296 44.2318 4.83296Z" fill="white"/>
<path d="M88.4837 24.1648V29.1512H68.8059V24.5483C77.6101 16.7236 82.3885 13.4632 82.3885 9.20563C82.3885 6.32887 80.733 4.75624 78.325 4.75624C75.4279 4.75624 73.9981 7.01929 73.9605 11.1235H68.5425C68.5801 7.74807 69.5208 5.0631 71.3644 3.03019C73.208 0.997277 75.6536 0 78.626 0C84.0063 0 87.957 3.56718 87.957 8.32342C87.957 12.5427 86.6401 15.4194 75.9546 24.1648H88.4837Z" fill="white"/>
<path d="M123.223 18.2195V22.7839H117.88V29.1512H112.801V22.7839H100.761V18.2195L112.801 0.383567H117.88V18.2195H123.223ZM105.012 18.2195H112.801V6.75079L105.012 18.2195Z" fill="white"/>
</svg>
